<svg xmlns="http://www.w3.org/2000/svg" viewBox="0 0 40 40" fill="none">
  <defs>
    <radialGradient id="bg" cx="40%" cy="35%" r="60%">
      <stop offset="0%" stop-color="#818cf8"/>
      <stop offset="100%" stop-color="#7c3aed"/>
    </radialGradient>
  </defs>
  <rect width="40" height="40" rx="10" fill="url(#bg)"/>
  <rect x="0.5" y="0.5" width="39" height="39" rx="9.5" stroke="white" stroke-opacity="0.18" stroke-width="1"/>
  <circle cx="20" cy="20" r="13.5" stroke="white" stroke-opacity="0.22" stroke-width="1.5"/>
  <line x1="20" y1="20" x2="20" y2="6.5"   stroke="white" stroke-opacity="0.9" stroke-width="2" stroke-linecap="round"/>
  <line x1="20" y1="20" x2="33.5" y2="20"  stroke="white" stroke-opacity="0.9" stroke-width="2" stroke-linecap="round"/>
  <line x1="20" y1="20" x2="20" y2="33.5"  stroke="white" stroke-opacity="0.9" stroke-width="2" stroke-linecap="round"/>
  <line x1="20" y1="20" x2="6.5" y2="20"   stroke="white" stroke-opacity="0.9" stroke-width="2" stroke-linecap="round"/>
  <line x1="20"   y1="6.5"  x2="33.5" y2="20"   stroke="white" stroke-opacity="0.18" stroke-width="1.2" stroke-linecap="round"/>
  <line x1="33.5" y1="20"   x2="20"   y2="33.5"  stroke="white" stroke-opacity="0.18" stroke-width="1.2" stroke-linecap="round"/>
  <line x1="20"   y1="33.5" x2="6.5"  y2="20"    stroke="white" stroke-opacity="0.18" stroke-width="1.2" stroke-linecap="round"/>
  <line x1="6.5"  y1="20"   x2="20"   y2="6.5"   stroke="white" stroke-opacity="0.18" stroke-width="1.2" stroke-linecap="round"/>
  <circle cx="20"   cy="6.5"  r="2.8" fill="white"/>
  <circle cx="33.5" cy="20"   r="2.8" fill="white"/>
  <circle cx="20"   cy="33.5" r="2.8" fill="white"/>
  <circle cx="6.5"  cy="20"   r="2.8" fill="white"/>
  <circle cx="20" cy="20" r="5" fill="white"/>
  <circle cx="20" cy="20" r="2.2" fill="url(#bg)"/>
</svg>
